<svg xmlns="http://www.w3.org/2000/svg" viewBox="0 0 55.22 97.64"><defs><style>.a{fill:#49bf15;}</style></defs><title>Asset 1</title><path class="a" d="M12.59,46.75c-1.59,18.55,9.34,31,11.18,33,6.17,6.75,18.62,13.63,26.3,15,1.13.2,4.21.86,4.76,1.32.93.78.06,1.47-1.15,1.53-6.32.32-21.64-.17-35.31-11.39C15.37,83.71.7,71.07,0,50.06-.8,23.13,21.93,8.22,23,7.57A50.72,50.72,0,0,1,53.12.12,1.23,1.23,0,0,1,54.23,1.6l-.6,2.87A4.41,4.41,0,0,1,49.56,8c-7.63.41-14.05,3.28-20.35,8.22C27.09,17.83,14.19,28.2,12.59,46.75Z"/><path class="a" d="M30.84,47.64a25.49,25.49,0,0,0,6.39,18.87c3.53,3.86,10.65,7.8,15,8.56a11.38,11.38,0,0,1,2.72.76c.53.44,0,.84-.66.88a29.73,29.73,0,0,1-20.19-6.52C32.43,68.78,24,61.55,23.65,49.53c-.47-15.4,12.53-23.93,13.15-24.3A29,29,0,0,1,54,21a.7.7,0,0,1,.63.85l-.34,1.64a2.52,2.52,0,0,1-2.32,2,20,20,0,0,0-11.64,4.7A25.42,25.42,0,0,0,30.84,47.64Z"/></svg>